<svg id="Layer_1" data-name="Layer 1" xmlns="http://www.w3.org/2000/svg" viewBox="0 0 256 256"><defs><style>.cls-1{fill:#d3d3d3;}.cls-2{opacity:0.8;}.cls-3{font-size:22px;font-family:Monaco, Monaco;letter-spacing:-0.02em;}.cls-3,.cls-4{fill:#fff;}.cls-5{fill:#50b649;}</style></defs><title>icon</title><rect class="cls-1" width="256" height="256"/><rect class="cls-2" y="98" width="256" height="60"/><text class="cls-3" transform="translate(6.71 135.66)">/* Wp Weixin Pay */</text><path d="M121.94,206.82c.1,1.48.14,3,.32,4.47a1.76,1.76,0,0,0,1.69,1.5c.42.06.85.09,1.33.14v.83h-10l0-.81,1-.12c1.52-.17,2.13-.75,2.23-2.28.09-1.37.11-2.75.11-4.13,0-2,0-4-.09-6s-.59-2.48-2.63-2.68l-.58-.06v-.81a2,2,0,0,1,.34-.06c3.3,0,6.59,0,9.88.13a7.74,7.74,0,0,1,3.26,1,4.3,4.3,0,0,1,.21,7.52,20,20,0,0,1-2.66,1.22c1.67,1.71,3.12,3.7,5.15,5.09a5.55,5.55,0,0,0,4.16,1,1.88,1.88,0,0,0,1.8-1.64,11.61,11.61,0,0,0,.21-2.15c0-2.8,0-5.6-.06-8.4-.06-2.17-.58-2.65-2.75-2.85l-.44,0a3.32,3.32,0,0,1-.06-.38,4.24,4.24,0,0,1,0-.43,1.55,1.55,0,0,1,.32-.07c3.45,0,6.91,0,10.36.1a9.9,9.9,0,0,1,5.81,2c2.59,2,3.33,4.69,2.92,7.77a7.5,7.5,0,0,1-4.94,6.19,14.65,14.65,0,0,1-5.64.94c-4.65,0-9.3,0-14,0a1.16,1.16,0,0,1-1-.5c-1.61-2-3.24-4.05-4.84-6.1A1.09,1.09,0,0,0,121.94,206.82Zm19.15-8.47v.85c0,3.3,0,6.59,0,9.89,0,.59,0,1.17.09,1.76a1.37,1.37,0,0,0,1.49,1.41c.54,0,1.08,0,1.62,0a5.37,5.37,0,0,0,5.28-4.32,11,11,0,0,0,0-5.23,5.16,5.16,0,0,0-3.5-4A16.07,16.07,0,0,0,141.09,198.35Zm-19,6.84c.76,0,1.43,0,2.11,0a4.64,4.64,0,0,0,.74-.09,3.46,3.46,0,0,0,.44-6.54,22.24,22.24,0,0,0-3.29-.29Z" transform="translate(0 0)"/><path d="M174.82,197.74c-.17-.84-.14-.89.59-.88,3.2,0,6.41,0,9.61.1a6.52,6.52,0,0,1,3.61,1.21,4.33,4.33,0,0,1,.19,7.06,7.09,7.09,0,0,1-1.45.85,15.28,15.28,0,0,1-1.6.52c.14.17.25.33.38.47,1.25,1.31,2.47,2.64,3.76,3.9a6.83,6.83,0,0,0,3.09,1.74c1.85.48,3-.25,3.27-2.13a10.78,10.78,0,0,0,.1-1.48c0-2.53,0-5.06,0-7.59,0-.18,0-.36,0-.54-.12-2.84-.89-3.09-2.93-3.21l-.31-.05v-.82H208l.35,4.62c-.49.2-.81.16-.89-.42a6.33,6.33,0,0,0-.18-.65,2.31,2.31,0,0,0-2.17-1.92c-1.72-.13-3.45-.18-5.22-.26v6c1.12-.15,2.2-.25,3.27-.46a1.28,1.28,0,0,0,.93-1.21c.06-.44.1-.89.16-1.38h.87v2c0,1.6,0,3.21,0,4.81,0,.69-.25.82-.88.67l-.15-1.32a1.45,1.45,0,0,0-1.25-1.4c-.95-.15-1.91-.21-3-.32.1,1.9-.2,3.67.32,5.42a1.78,1.78,0,0,0,1.82,1.25c1.22,0,2.44,0,3.65,0a2.71,2.71,0,0,0,2.82-2.48c.08-.43.21-.82.88-.55l-.29,4.64c-.28,0-.52,0-.76,0q-9.75,0-19.51,0a1.22,1.22,0,0,1-1.08-.51c-1.6-2-3.24-4.06-4.84-6.1a1,1,0,0,0-1.31-.42,18.32,18.32,0,0,0,.29,4.71,1.83,1.83,0,0,0,1.66,1.29c.42.06.85.09,1.3.14v.83a3.69,3.69,0,0,1-.42.05c-3,0-6.05,0-9.08,0-.74,0-.57-.42-.52-.88l1.09-.12a2,2,0,0,0,2.06-2,14.36,14.36,0,0,0,.13-1.75c0-2.51,0-5,0-7.52a11,11,0,0,0-.19-2,1.85,1.85,0,0,0-1.85-1.66Zm6.76,7.46c.35,0,.66,0,1,0a15.61,15.61,0,0,0,1.89-.11A3,3,0,0,0,187,202a3.11,3.11,0,0,0-2.12-3.45,21.94,21.94,0,0,0-3.28-.29Z" transform="translate(0 0)"/><path d="M87.66,192.67v-.84h9.45v.85l-1.42.15A3.17,3.17,0,0,0,93,194.71a28.26,28.26,0,0,0-1.24,3.07c-1.83,5.42-3.62,10.86-5.44,16.28-.09.27-.08.73-.54.59a1,1,0,0,1-.48-.6q-2.39-7.26-4.74-14.52c-.07-.21-.14-.42-.28-.79-.14.36-.23.58-.31.8l-4.77,14.37a1.15,1.15,0,0,1-.14.38c-.13.15-.3.36-.45.36a.63.63,0,0,1-.42-.38c-.66-2-1.29-3.94-1.93-5.91-1.26-3.88-2.52-7.76-3.79-11.63a17,17,0,0,0-.83-2,3.44,3.44,0,0,0-3.16-2l-.77-.06v-.86h11.2v.84c-.49.06-1,.1-1.5.18-1.33.21-1.92.93-1.59,2.21.47,1.83,1.08,3.63,1.65,5.43.62,2,1.27,3.9,1.91,5.85.06.18.14.36.27.7.22-.63.39-1.11.55-1.59q2.19-6.5,4.37-13c.11-.32.14-.68.68-.68s.61.35.73.7l4.51,13.68c.08.25.18.5.31.88.12-.29.2-.45.26-.62q1.66-4.9,3.31-9.8a10.45,10.45,0,0,0,.45-1.77,1.53,1.53,0,0,0-1.39-1.94C88.85,192.78,88.28,192.75,87.66,192.67Z" transform="translate(0 0)"/><path d="M15.42,202.76a22.92,22.92,0,1,1,22.89,22.93A22.89,22.89,0,0,1,15.42,202.76Zm1.32,0a21.6,21.6,0,1,0,21.67-21.55A21.59,21.59,0,0,0,16.74,202.72Z" transform="translate(0 0)"/><path d="M154.88,192.68v-.85c.21,0,.39,0,.56,0,3.54,0,7.09,0,10.63,0a9,9,0,0,1,4,1,5.83,5.83,0,0,1,.07,10.53,11,11,0,0,1-5.12,1h-2.51a1,1,0,0,0-.09.27c0,1.74,0,3.48.14,5.2.17,2.18,1,2.93,3.2,3l.53,0c.29.85.21,1-.62,1H155.5c-.41,0-.76,0-.64-.56a.66.66,0,0,1,.42-.43c2.72-.31,3.18-.76,3.5-3.49a13.41,13.41,0,0,0,.06-1.55c0-3.57,0-7.13,0-10.7a11.08,11.08,0,0,0-.26-2.21,2.31,2.31,0,0,0-2.26-2.06C155.86,192.77,155.41,192.74,154.88,192.68Zm7.61,9.77a33.63,33.63,0,0,0,3.5,0,3.62,3.62,0,0,0,3.46-3.24,7,7,0,0,0,.07-1.88,3.73,3.73,0,0,0-3-3.59,38.87,38.87,0,0,0-4.07-.23Z" transform="translate(0 0)"/><path d="M103.85,214.46a10.13,10.13,0,0,1-8.2-4.13A8.32,8.32,0,0,1,96.83,199a11,11,0,0,1,14.68.07,8.51,8.51,0,0,1-1.07,13.41A11.09,11.09,0,0,1,103.85,214.46Zm-6.05-9.15a9.18,9.18,0,0,0,1,4.31,5.65,5.65,0,0,0,5.35,3.26,5.58,5.58,0,0,0,5.39-3.2,9.42,9.42,0,0,0,0-8.79,5.56,5.56,0,0,0-5.21-3.15,5.65,5.65,0,0,0-5.36,3A9,9,0,0,0,97.8,205.31Z" transform="translate(0 0)"/><path d="M229.72,212.72a6.41,6.41,0,0,0-.58,1.15c-.15.57-.46.71-1,.52v-6.82c.66-.22.91,0,1.05.67a5.54,5.54,0,0,0,6,4.57,2.71,2.71,0,0,0,2.53-1.71,2.39,2.39,0,0,0-1-2.78,21.36,21.36,0,0,0-2.56-1.5,39.34,39.34,0,0,1-3.71-1.94c-3.29-2.25-3-6.49.46-8a7.65,7.65,0,0,1,2.42-.55,6.19,6.19,0,0,1,4.16,1.23c.7-.23.35-1.72,1.61-1.21v5.82c-.6.14-1,.14-1.14-.64-.51-2.3-1.84-3.55-3.92-3.65a4.32,4.32,0,0,0-2.12.49,1.82,1.82,0,0,0-.38,3,7,7,0,0,0,1.66,1.15c1.38.72,2.81,1.34,4.17,2.08a8.21,8.21,0,0,1,2,1.52,4.72,4.72,0,0,1-.72,7,7,7,0,0,1-8.11.16Z" transform="translate(0 0)"/><path d="M222,197.53c.68-.3.34-1.7,1.59-1.22v5.77c-.86.23-.9.21-1.1-.59-.56-2.27-1.87-3.55-3.94-3.66a4.32,4.32,0,0,0-2.12.49,1.81,1.81,0,0,0-.4,3,6.94,6.94,0,0,0,1.65,1.15c1.4.73,2.83,1.4,4.24,2.1a5.93,5.93,0,0,1,2.83,2.72,4.84,4.84,0,0,1-1.6,5.86,7,7,0,0,1-8.12.09l-.7-.48a5.5,5.5,0,0,0-.6,1.12c-.16.62-.5.71-1.1.52v-6.84h.92c.08.33.17.67.26,1a5.54,5.54,0,0,0,5.95,4.26,2.69,2.69,0,0,0,2.47-1.69,2.34,2.34,0,0,0-1-2.74A16.71,16.71,0,0,0,219,207c-1.1-.58-2.25-1-3.34-1.64a5.18,5.18,0,0,1-3-4.1,4.57,4.57,0,0,1,3.93-4.82A6.69,6.69,0,0,1,222,197.53Z" transform="translate(0 0)"/><path class="cls-4" d="M16.74,202.72a21.6,21.6,0,1,1,21.51,21.65A21.59,21.59,0,0,1,16.74,202.72Zm16.83,11.65c.11-.25.16-.34.19-.44,1.29-3.85,2.58-7.69,3.84-11.54a1.62,1.62,0,0,0-.06-1c-.7-2-1.51-3.92-2.12-5.92-.38-1.27-.95-2-2.35-1.81a.52.52,0,0,1-.13,0c-.53-.07-.92-.3-.85-.91s.47-.76,1-.72c.88.06,1.76.15,2.64.14,2.37,0,4.74-.08,7.1-.15.51,0,.91.09,1,.63s-.21.91-.84,1-1.29.13-2,.19l6.82,20.29c1.13-3.32,2.18-6.62,3.06-10a11.71,11.71,0,0,0,.21-3.62,10.5,10.5,0,0,0-1.74-4.5,14.91,14.91,0,0,1-1.46-3.1,3.39,3.39,0,0,1,2.24-4.21c.27-.08.55-.12,1-.2a19.15,19.15,0,0,0-28.72,3.7c.61,0,1,0,1.47,0l4.46-.19c.18,0,.42-.08.53,0s.65.49.63.72a1.08,1.08,0,0,1-.61.8,15.64,15.64,0,0,1-2.21.28Zm11.06,6.43-5.95-16.29L33,221.1A19,19,0,0,0,44.63,220.8ZM20.9,195.14c-4.23,9.1,0,20.64,9,24.66ZM48,219.25a19.25,19.25,0,0,0,9.08-12.94c.94-4.65-.23-9.83-1.9-12.29a15.57,15.57,0,0,1-.82,6.79c-2,5.84-4,11.67-6.06,17.5C48.26,218.57,48.18,218.82,48,219.25Z" transform="translate(0 0)"/><path d="M33.57,214.37l-6.89-20.51a15.64,15.64,0,0,0,2.21-.28,1.08,1.08,0,0,0,.61-.8c0-.23-.38-.52-.63-.72s-.35,0-.53,0l-4.46.19c-.43,0-.85,0-1.47,0a19.15,19.15,0,0,1,28.72-3.7c-.4.08-.68.12-1,.2a3.39,3.39,0,0,0-2.24,4.21,14.91,14.91,0,0,0,1.46,3.1,10.5,10.5,0,0,1,1.74,4.5,11.71,11.71,0,0,1-.21,3.62c-.88,3.35-1.92,6.66-3.06,10L41,193.84c.72-.07,1.37-.1,2-.19s1-.5.84-1-.54-.64-1-.63c-2.37.06-4.74.12-7.1.15-.88,0-1.76-.09-2.64-.14-.54,0-1,.12-1,.72s.32.84.85.91a.52.52,0,0,0,.13,0c1.4-.19,2,.55,2.35,1.81.6,2,1.42,3.94,2.12,5.92a1.62,1.62,0,0,1,.06,1c-1.26,3.85-2.55,7.7-3.84,11.54C33.73,214,33.68,214.12,33.57,214.37Z" transform="translate(0 0)"/><path d="M44.63,220.8a19,19,0,0,1-11.65.3l5.7-16.59Z" transform="translate(0 0)"/><path d="M20.9,195.14l9,24.66C20.93,215.77,16.67,204.24,20.9,195.14Z" transform="translate(0 0)"/><path d="M48,219.25c.14-.44.22-.69.3-.93,2-5.83,4.05-11.66,6.06-17.5a15.58,15.58,0,0,0,.82-6.79c1.67,2.46,2.84,7.65,1.9,12.29A19.25,19.25,0,0,1,48,219.25Z" transform="translate(0 0)"/><path class="cls-5" d="M168.37,31.79a32.36,32.36,0,0,1-3.71,36c-7.85,9.36-18.09,14.26-30.08,15.7a51.46,51.46,0,0,1-21.08-1.56,4.94,4.94,0,0,0-4,.76c-2.75,1.56-5.48,3.16-8.21,4.77-.87.51-1.8,1.12-2.73.45s-.34-1.83-.12-2.72c.48-2,1-4,1.62-5.89.74-2.15,0-3.61-1.68-4.92A37.68,37.68,0,0,1,86.64,60c-1.39-3-1.9-6.3-2.75-9.48l-.06-6.34c.76-3.57,1.4-7.18,3-10.5,5.5-11.19,14.66-18,26.4-21.38,16-4.58,31-2.28,44.68,7.52a61.82,61.82,0,0,1,5,4.58" transform="translate(0 0)"/></svg>